<?xml version="1.0" encoding="utf-8"?>
<!-- Generator: Adobe Illustrator 15.1.0, SVG Export Plug-In . SVG Version: 6.00 Build 0)  -->
<!DOCTYPE svg PUBLIC "-//W3C//DTD SVG 1.1//EN" "http://www.w3.org/Graphics/SVG/1.1/DTD/svg11.dtd">
<svg version="1.1" xmlns="http://www.w3.org/2000/svg" xmlns:xlink="http://www.w3.org/1999/xlink" x="0px" y="0px"
	 width="433.63px" height="159.834px" viewBox="0 0 433.63 159.834" enable-background="new 0 0 433.63 159.834"
	 xml:space="preserve">
<g id="Layer_2">
	<g>
		<path fill="#E51937" d="M143.226,65.462c-0.073,0.039-0.138-0.043-0.213-0.005c-3.517,1.791-8.312,2.855-13.61,2.908
			c-6.005,0.061-11.375-1.059-15.002-3.207l-37.7,95.176h18.313l2.875-7l30.063-12.563l31.625,13.313l2.125,6.25h18.313
			L143.226,65.462z M145.638,117.959l-7.313-3.938l4.188-3.375L145.638,117.959z M128.482,74.834l5.531,12.5h-11.063L128.482,74.834
			z M119.451,97.334h18.063l1.938,4.852l-10.969,6.039l-11.031-6.109L119.451,97.334z M114.451,110.646l4.188,3.375l-7.313,3.938
			L114.451,110.646z M129.013,131.334h-1.125l-24.813,9.039l2.313-7.461l23.063-13.109l22.938,13.438l2.188,7.148L129.013,131.334z"
			/>
	</g>
</g>
<g id="Layer_4">
	<g>
		<path fill="#E51937" d="M149.471,38.135c0-11.655-9.49-21.029-21.291-21.029c-11.802,0-21.291,9.375-21.291,21.029
			s9.489,21.029,21.291,21.029C139.98,59.165,149.471,49.79,149.471,38.135z"/>
	</g>
</g>
<g id="Layer_5" display="none">
	<path display="inline" fill="#FF0000" d="M45.68,37.246C44.347,11.5,62.847,0,62.847,0s2.833-1.5,7.167,1.833
		c3.333,2.5,2.333,6.833,2.333,6.833s-13,12.103-12.167,29.468s12.167,27.699,12.167,27.699s1.5,4-1.5,7.167
		c-3.921,4.139-9.167,1.167-9.167,1.167S47.014,62.991,45.68,37.246z"/>
	<path display="inline" fill="#FF0000" d="M83.847,14.334c0,0-10,5.53-10.5,23.098s10.5,24.068,10.5,24.068s4.5,1.667,7.833-1
		s2.833-5.833,2.833-5.833s-7.167-6.897-7.5-16.532s7.5-14.635,7.5-14.635s0.5-4.5-2.5-7.833C89.347,13,83.847,14.334,83.847,14.334
		z"/>
	<path display="inline" fill="#FF0000" d="M211.475,37.246C212.808,11.5,194.308,0,194.308,0s-2.833-1.5-7.166,1.833
		c-3.333,2.5-2.334,6.833-2.334,6.833s13,12.103,12.167,29.468s-12.167,27.699-12.167,27.699s-1.5,4,1.5,7.167
		c3.922,4.139,9.167,1.167,9.167,1.167S210.142,62.991,211.475,37.246z"/>
	<path display="inline" fill="#FF0000" d="M173.308,14.334c0,0,10,5.53,10.5,23.098s-10.5,24.068-10.5,24.068s-4.5,1.667-7.833-1
		s-2.833-5.833-2.833-5.833s7.167-6.897,7.5-16.532s-7.5-14.635-7.5-14.635s-0.5-4.5,2.5-7.833
		C167.809,13,173.308,14.334,173.308,14.334z"/>
</g>
<g id="Layer_6">
	<g>
		<g>
			<path fill="#E51937" d="M164.771,23.077c3.468,3.222,5.219,8.537,5.552,13.385c0.271,3.941-0.514,7.909-2.393,11.375
				c-0.519,0.957-1.117,1.764-1.848,2.557c-0.477,0.516-2.363,1.953-0.098,0.259c-6.118,4.576-0.147,15.001,6.057,10.361
				c13.817-10.334,13.544-34.968,1.214-46.423C167.596,9.333,159.09,17.799,164.771,23.077L164.771,23.077z"/>
		</g>
	</g>
	<g>
		<g>
			<path fill="#E51937" d="M84.106,14.591c-12.33,11.456-12.604,36.089,1.214,46.423c6.204,4.64,12.175-5.785,6.057-10.361
				c2.323,1.737-0.826-1.057-1.452-1.998c-2.086-3.138-2.766-6.816-2.91-10.521c-0.207-5.313,1.789-11.54,5.576-15.059
				C98.272,17.799,89.767,9.333,84.106,14.591L84.106,14.591z"/>
		</g>
	</g>
	<g>
		<g>
			<path fill="#E51937" d="M186.604,10.41c6.761,7.543,11.787,18.17,11.93,28.406c0.134,9.582-5.794,20.088-11.93,26.941
				c-5.146,5.746,3.313,14.262,8.484,8.485c8.642-9.651,14.979-22.372,15.445-35.427c0.472-13.206-6.798-27.244-15.445-36.892
				C189.914-3.849,181.456,4.667,186.604,10.41L186.604,10.41z"/>
		</g>
	</g>
	<g>
		<g>
			<path fill="#E51937" d="M61.293,1.925C52.352,11.9,46.036,25.328,45.848,38.816c-0.179,12.794,7.086,26.091,15.445,35.427
				c5.172,5.776,13.63-2.74,8.485-8.485c-6.348-7.09-11.581-17.16-11.93-26.941c-0.358-10.02,5.391-21.11,11.93-28.406
				C74.926,4.667,66.468-3.849,61.293,1.925L61.293,1.925z"/>
		</g>
	</g>
</g>
<g id="Letters_-_Text" display="none">
	<g display="inline">
		<path fill="#E51937" d="M0,72.258h21.894v69.126h34.194v18.45H0V72.258z"/>
	</g>
	<g display="inline">
		<path fill="#E51937" d="M234.523,160.334h-21.06v-64.74c-2.774,1.04-5.872,1.755-9.295,2.145c-3.425,0.39-6.652,0.672-9.686,0.845
			v-14.04c6.586-0.173,11.655-1.32,15.21-3.445c3.553-2.123,6.325-5.265,8.32-9.425h16.51V160.334z"/>
	</g>
	<g display="inline">
		<path fill="#E51937" d="M252.647,116.046V95.382h19.927v20.664H252.647z M252.647,159.834V139.17h19.927v20.664H252.647z"/>
	</g>
	<g display="inline">
		<path fill="#E51937" d="M280.99,72.258h67.649v16.974h-22.878v70.602h-21.895V89.232H280.99V72.258z"/>
		<path fill="#E51937" d="M350.851,72.258h23.248l17.834,62.484h0.246l18.451-62.484h23l-30.258,87.576h-23.246L350.851,72.258z"/>
	</g>
</g>
<g id="Letters_-_Vectors">
	<g>
		<path fill="#E51937" d="M0,72.258h21.894v69.126h34.194v18.45H0V72.258z"/>
	</g>
	<g>
		<path fill="#E51937" d="M234.523,160.334h-21.06v-64.74c-2.774,1.04-5.872,1.755-9.295,2.145c-3.425,0.39-6.652,0.672-9.686,0.845
			v-14.04c6.586-0.173,11.655-1.32,15.21-3.445c3.553-2.123,6.325-5.265,8.32-9.425h16.51V160.334z"/>
	</g>
	<g>
		<path fill="#E51937" d="M252.647,116.046V95.382h19.927v20.664H252.647z M252.647,159.834V139.17h19.927v20.664H252.647z"/>
	</g>
	<g>
		<path fill="#E51937" d="M280.99,72.258h67.649v16.974h-22.878v70.602h-21.895V89.232H280.99V72.258z"/>
		<path fill="#E51937" d="M350.851,72.258h23.248l17.834,62.484h0.246l18.451-62.484h23l-30.258,87.576h-23.246L350.851,72.258z"/>
	</g>
</g>
</svg>
